PathFileType	4	(X/Y/Z)	Run_500 02
DataRate	CameraRate	NumFrames	NumMarkers	Units	OrigDataRate	OrigDataStartFrame	OrigNumFrames
100	100	7	42	mm	100	87	128
Frame#	Time	LASI			RASI			LPSI			RPSI			RTH1			RTH2			RTH3			LTH1			LTH2			LTH3			RTB1			RTB2			RTB3			LTB1			LTB2			LTB3			RCAL			RTOE			RMT5			LCAL			LTOE			LMT5			LACR			RACR			CLAV			C7			RUA1			RUA2			RUA3			RLEL			RMEL			LUA1			LUA2			LUA3			LLEL			LMEL			RFAsuperior			RFAradius			RFAulna			LFAsuperior			LFAradius			LFAulna			
		X1	Y1	Z1	X2	Y2	Z2	X3	Y3	Z3	X4	Y4	Z4	X5	Y5	Z5	X6	Y6	Z6	X7	Y7	Z7	X8	Y8	Z8	X9	Y9	Z9	X10	Y10	Z10	X11	Y11	Z11	X12	Y12	Z12	X13	Y13	Z13	X14	Y14	Z14	X15	Y15	Z15	X16	Y16	Z16	X17	Y17	Z17	X18	Y18	Z18	X19	Y19	Z19	X20	Y20	Z20	X21	Y21	Z21	X22	Y22	Z22	X23	Y23	Z23	X24	Y24	Z24	X25	Y25	Z25	X26	Y26	Z26	X27	Y27	Z27	X28	Y28	Z28	X29	Y29	Z29	X30	Y30	Z30	X31	Y31	Z31	X32	Y32	Z32	X33	Y33	Z33	X34	Y34	Z34	X35	Y35	Z35	X36	Y36	Z36	X37	Y37	Z37	X38	Y38	Z38	X39	Y39	Z39	X40	Y40	Z40	X41	Y41	Z41	X42	Y42	Z42	

85	0.97	789.971905	1022.415678	-443.961639	787.873338	1001.717432	-180.749139	622.452107	1039.235507	-375.249784	617.988658	1021.606612	-277.202751	641.672295	831.863635	-152.1828	681.891947	701.284346	-169.01688	573.591056	621.178097	-188.587449	768.5688740000001	825.531869	-503.426428	884.564717	731.570261	-473.367519	886.51807	609.903922	-456.700475	447.605263	424.918167	-256.282414	381.807824	441.646058	-189.279733	279.088909	399.312531	-247.815099	999.686457	407.245112	-378.323298	980.375751	313.50396	-444.167657	1028.660158	255.601647	-369.603783	159.829124	485.930402	-245.824658	81.73289800000001	275.639004	-275.605111	64.658095	323.388413	-189.277466	966.405333	83.30772899999999	-358.971594	1180.493856	160.023758	-331.008653	1152.54809	110.637477	-421.947813	768.647769	1468.147022	-500.020938	805.9623810000001	1494.256467	-175.770062	840.439294	1419.844074	-310.666027	723.856115	1510.066346	-326.402542	760.303758	1439.221102	-78.46539900000001	684.8763750000001	1374.667639	-83.251847	717.208615	1334.915591	-25.406373	682.435487	1244.248323	32.131877	653.852361	1212.477825	-38.905236	682.477788	1430.993873	-564.715053	618.010473	1380.374213	-510.134638	569.780421	1342.74086	-565.99793	517.84108	1280.328735	-608.266566	516.266057	1264.548051	-532.754606	786.545821	1213.349092	28.016995	924.3426470000001	1169.414645	-23.853779	903.465569	1109.215743	10.834517	590.349657	1196.858809	-631.460166	700.23623	1071.365762	-591.52993	645.375327	1040.792945	-624.985563	
86	0.98	788.244857	1019.146648	-445.721163	787.588218	997.678062	-181.499892	622.116723	1031.826284	-375.606142	617.663064	1018.075287	-277.597872	647.087412	822.148743	-149.721126	690.987667	694.291034	-168.920854	587.168234	609.038624	-188.474444	766.993129	823.61823	-505.266474	884.6837410000001	734.392379	-475.195371	890.330154	611.3367500000001	-458.708185	465.49165	420.803775	-258.869359	400.10393	442.100324	-190.841189	296.510173	408.17465	-251.365387	990.972436	400.587235	-378.444793	968.128004	306.743187	-441.26775	1012.910777	246.336819	-368.056688	186.27071	502.426078	-250.480929	87.991786	298.857011	-272.50842	74.61933500000001	352.418742	-189.241084	940.495422	84.374787	-354.185518	1159.711371	138.354236	-330.120224	1125.480092	92.68645600000001	-420.159567	773.25018	1460.71346	-501.643089	806.125599	1488.590476	-176.573413	841.162186	1413.806271	-310.813963	726.091779	1505.486994	-329.058132	758.899612	1434.127795	-79.65403999999999	683.001495	1370.634169	-84.741782	714.7117	1329.701901	-27.12888	677.0877369999999	1240.328698	30.107063	648.9386	1209.094413	-41.236045	688.733998	1421.382535	-569.306506	623.753542	1369.119374	-515.869153	577.7248090000001	1331.174919	-573.895874	528.862126	1267.133399	-617.493233	524.356133	1251.452468	-541.6005709999999	780.435974	1207.110718	27.322224	918.61188	1159.928291	-21.5633	895.168516	1100.026599	12.200505	603.32183	1185.292387	-637.4758880000001	714.360318	1062.635904	-594.3172489999999	661.89066	1030.548215	-630.130418	
87	0.99	785.892092	1015.151209	-448.315563	787.32876	992.228068	-183.112144	621.02745	1024.757517	-375.523832	617.369281	1013.132671	-278.863086	652.518119	811.701554	-147.826974	700.446703	686.809297	-168.459389	601.987215	596.127714	-189.384955	765.499126	822.292561	-503.435218	885.1736979999999	737.194449	-475.674268	889.9748070000001	609.977755	-458.861843	486.144027	415.859303	-260.25552	420.597082	441.506144	-191.452914	316.63656	414.311814	-253.792572	979.413426	391.587695	-376.109487	951.5325309999999	298.803537	-436.869239	990.878801	234.973693	-365.372132	213.902426	514.606073	-256.102398	103.089812	316.607705	-269.282506	92.14138800000001	375.53276	-188.608185	905.061256	87.16701999999999	-349.352339	1129.322146	111.926184	-330.588059	1086.955912	71.674268	-422.388287	777.086951	1452.621162	-503.15209	805.714007	1482.424007	-177.168891	841.59666	1407.19908	-310.980024	727.677852	1499.986696	-331.735779	756.6367760000001	1427.85756	-80.47417799999999	680.049942	1365.609894	-86.057782	711.212718	1323.229067	-28.662967	670.502414	1235.875516	27.989495	643.023367	1205.115635	-43.791114	694.611986	1410.383938	-573.911718	628.680462	1356.164756	-523.089203	586.079292	1317.665127	-583.66945	540.754646	1251.878453	-627.251881	533.270818	1236.281252	-551.663805	772.969978	1200.039461	27.053517	911.126884	1148.600222	-18.79614	884.836693	1089.540715	14.20093	617.35181	1172.097996	-643.8934410000001	730.323821	1053.083928	-597.227276	680.1999960000001	1019.289124	-635.178435	
88	1	783.434983	1010.573742	-451.209325	787.4462590000001	985.6296599999999	-185.387122	619.063938	1018.393889	-374.8534	617.459312	1007.036231	-280.794581	658.848734	800.105865	-146.814856	711.008824	678.913094	-167.966266	618.591906	582.975502	-191.442917	763.583896	819.716863	-500.378025	883.66134	735.21897	-475.625975	884.2764110000001	604.317894	-457.88847	509.73815	410.57818	-260.956542	443.310848	439.927564	-191.451473	338.959535	417.745598	-254.882329	966.045041	381.15664	-371.926627	931.226131	291.33221	-433.048932	964.0161900000001	223.942502	-361.997154	241.617522	523.1206110000001	-261.902604	125.398113	328.863984	-266.916155	116.098715	391.477106	-187.551325	862.804709	90.453411	-346.248589	1090.397609	88.657779	-330.822222	1041.379512	55.37132	-425.336922	780.074169	1444.527942	-504.581123	804.70503	1476.349655	-177.505087	841.8272490000001	1400.394232	-311.16461	728.521026	1493.781918	-334.414972	753.325576	1421.134305	-81.180488	675.986599	1359.966754	-87.661123	706.54593	1316.244773	-30.238221	662.795237	1231.180423	25.534303	636.1101640000001	1200.860229	-46.739252	699.994945	1398.304892	-578.427684	632.873585	1342.038179	-531.409578	595.02496	1302.260839	-594.504475	553.362314	1235.032035	-636.872452	543.165402	1219.298684	-562.105815	764.305918	1192.463562	27.160584	901.945257	1135.939636	-15.298219	872.5626569999999	1078.196191	16.922273	632.637229	1157.672577	-650.697497	747.862408	1042.925444	-600.086282	700.086326	1007.371799	-639.874328	
89	1.01	781.134087	1005.505569	-453.957957	787.898295	978.136164	-188.182812	616.341189	1012.913516	-373.607919	617.877479	1000.04075	-283.23112	666.549684	787.620267	-147.001093	722.675893	671.318652	-167.547659	636.777069	570.3340940000001	-194.146694	760.395935	814.61978	-499.060945	879.366858	727.380344	-476.636186	876.13852	595.9165819999999	-456.643684	536.27721	405.362796	-261.379984	468.657191	436.980727	-191.286545	363.623823	418.366693	-254.80566	951.690881	371.461281	-368.25129	907.97936	286.107528	-430.677228	934.030277	215.851871	-358.964258	269.87047	528.129323	-267.079536	152.001068	335.854588	-265.255412	144.97831	400.149877	-186.31915	816.6064710000001	93.359385	-345.11122	1045.640308	74.48728	-330.095981	993.126718	48.191936	-425.886229	782.221916	1437.062294	-506.109286	803.02187	1470.966791	-177.543691	841.859947	1393.890166	-311.285809	728.682688	1487.383109	-336.998416	749.013948	1414.871432	-82.07215100000001	670.988158	1354.263902	-90.090915	700.725679	1309.793527	-32.132486	654.10561	1226.572044	22.486948	628.346986	1196.662533	-50.223242	705.035283	1385.545201	-582.750376	636.77994	1327.182538	-540.454128	604.8310300000001	1285.275758	-605.492482	566.88216	1217.003875	-645.922454	554.262929	1200.975855	-572.110556	754.4405850000001	1184.666151	27.537592	891.089041	1122.597721	-11.018588	858.446516	1066.455603	20.348204	649.455718	1142.517558	-657.4175300000001	766.714665	1032.370936	-602.704629	721.4629629999999	995.171091	-644.074153	
90	1.02	778.683683	1000.002106	-456.703776	788.0585600000001	970.081806	-191.188375	613.14466	1008.402927	-371.993034	617.982907	992.4920969999999	-285.854656	675.550264	775.667388	-148.277346	734.972202	665.006525	-167.185251	656.023862	559.215418	-196.714682	755.652865	807.589534	-500.310862	873.090916	716.018661	-478.877613	868.714823	587.306931	-455.64234	565.505314	400.548366	-261.612646	497.068462	432.318454	-191.264048	391.029521	416.234238	-254.019153	935.613464	364.204204	-366.732526	882.277361	283.653169	-429.255707	901.719827	211.619806	-357.054314	299.325612	529.46293	-271.025639	181.330172	337.223978	-263.478774	177.745867	401.865932	-185.270913	768.614146	95.764053	-344.954091	997.977363	69.394732	-328.933654	944.449059	48.197231	-424.231745	783.669448	1430.622362	-507.86179	800.556876	1466.682821	-177.38775	841.637356	1388.164208	-311.185984	728.450147	1481.509929	-339.302861	743.958743	1409.769994	-83.321186	665.437728	1349.159969	-93.67088	693.914528	1304.807203	-34.511084	644.612533	1222.456019	18.687673	620.034706	1192.914189	-54.327721	710.003192	1372.79883	-586.5797250000001	641.064869	1312.00653	-549.820192	615.952847	1267.531899	-615.789415	581.894346	1198.254846	-654.177643	567.015013	1181.976701	-581.21004	743.292521	1176.920443	27.92181	878.540535	1109.083123	-6.336769	842.494468	1054.778116	24.244285	668.16029	1127.222718	-663.342406	786.847521	1021.735012	-604.802397	744.355772	983.148918	-647.637146	
91	1.03	775.711392	994.320754	-459.860636	787.0765270000001	962.112038	-193.63748	609.8511099999999	1004.88377	-370.346888	616.93932	985.043996	-287.933435	685.178995	766.090865	-149.945889	747.662635	660.6301570000001	-166.816414	676.25362	550.6860339999999	-198.565577	749.800292	800.682608	-502.412786	865.596397	704.430614	-480.535086	861.674933	579.665066	-454.913228	597.053805	396.471196	-261.642999	528.624894	426.24623	-191.525107	421.431269	411.766013	-253.112447	915.880976	359.019721	-366.759322	853.6999960000001	282.443103	-427.942767	866.794716	209.564136	-356.352859	329.805003	527.099869	-273.521284	214.084533	332.301727	-261.525912	213.885289	396.875471	-184.708318	719.881361	97.873632	-344.919519	949.230823	68.84297599999999	-328.292433	895.5814800000001	50.19801	-422.954382	784.820263	1425.279344	-509.714279	797.357706	1463.571875	-177.308928	841.101407	1383.475393	-310.763116	728.182045	1476.787838	-341.201277	738.490985	1406.087756	-84.920446	659.793577	1345.212794	-98.271968	686.330861	1301.721044	-37.353266	634.536987	1219.309969	14.15012	611.533898	1190.125408	-59.089307	715.164071	1361.020939	-589.481101	646.523635	1297.084715	-558.870781	628.92671	1250.342412	-624.7366500000001	599.140993	1179.553628	-661.522623	581.921146	1163.178211	-589.301422	730.929064	1169.61671	27.821985	864.31328	1095.741295	-1.872848	824.618162	1043.59239	28.077853	689.076516	1112.513492	-667.867106	808.549443	1011.60713	-605.970589	768.899772	971.9567060000001	-650.294064	
